<svg xmlns="http://www.w3.org/2000/svg" xmlns:xlink="http://www.w3.org/1999/xlink" width="1200" zoomAndPan="magnify" viewBox="0 0 900 83.04" height="100" preserveAspectRatio="xMidYMid meet" version="1.0"><defs><clipPath id="3e9133afd1"><path d="M 416.105469 7.417969 L 483.574219 7.417969 L 483.574219 66.726562 L 416.105469 66.726562 Z M 416.105469 7.417969 " clip-rule="nonzero"/></clipPath><clipPath id="727a7febea"><path d="M 418.792969 16.886719 C 413.296875 25.941406 417.167969 34.753906 422.035156 39.429688 L 450.484375 66.726562 L 478.335938 39.527344 C 482.859375 34.496094 484.59375 29.160156 483.632812 23.214844 C 482.300781 14.996094 475.527344 8.617188 467.15625 7.707031 C 462.023438 7.152344 457.066406 8.605469 453.195312 11.820312 C 452.152344 12.6875 451.222656 13.65625 450.410156 14.707031 C 449.449219 13.507812 448.320312 12.414062 447.042969 11.445312 C 442.59375 8.0625 436.929688 6.71875 431.488281 7.761719 C 426.332031 8.757812 421.707031 12.082031 418.792969 16.886719 Z M 418.792969 16.886719 " clip-rule="nonzero"/></clipPath></defs><path stroke-linecap="round" transform="matrix(0.741429, 0, 0, 0.741429, 12.560462, 36.08735)" fill="none" stroke-linejoin="miter" d="M 1.999527 2.000142 L 551.940843 2.000142 " stroke="#d9ae63" stroke-width="4" stroke-opacity="1" stroke-miterlimit="4"/><path stroke-linecap="round" transform="matrix(0.741429, 0, 0, 0.741429, 36.895103, 18.566407)" fill="none" stroke-linejoin="miter" d="M 2.001276 2.002046 L 513.945842 2.002046 " stroke="#d9ae63" stroke-width="4" stroke-opacity="1" stroke-miterlimit="4"/><path stroke-linecap="round" transform="matrix(0.741429, 0, 0, 0.741429, 36.895103, 53.272468)" fill="none" stroke-linejoin="miter" d="M 2.001276 1.998087 L 542.622536 1.998087 " stroke="#d9ae63" stroke-width="4" stroke-opacity="1" stroke-miterlimit="4"/><g clip-path="url(#3e9133afd1)"><g clip-path="url(#727a7febea)"><path stroke-linecap="butt" transform="matrix(0.741429, 0, 0, 0.741429, 416.106092, 7.414284)" fill="none" stroke-linejoin="miter" d="M 3.623919 12.775924 C -3.788925 24.988412 1.432204 36.874251 7.996812 43.1807 L 46.367629 79.997296 L 83.932358 43.312413 C 90.033334 36.526527 92.372568 29.329693 91.076506 21.310967 C 89.279932 10.225948 80.144274 1.622413 68.853781 0.394842 C 61.930912 -0.353292 55.245128 1.606607 50.023999 5.94262 C 48.617298 7.112237 47.363384 8.418836 46.267526 9.836075 C 44.971464 8.218632 43.448854 6.743439 41.72604 5.43684 C 35.725167 0.874279 28.085776 -0.9381 20.746692 0.468601 C 13.792212 1.81208 7.554254 6.295613 3.623919 12.775924 Z M 3.623919 12.775924 " stroke="#d9ae63" stroke-width="8" stroke-opacity="1" stroke-miterlimit="4"/></g></g><path stroke-linecap="round" transform="matrix(0.741429, 0, 0, 0.741429, 476.776133, 36.255257)" fill="none" stroke-linejoin="miter" d="M 1.998411 2.000225 L 551.887042 2.000225 " stroke="#d9ae63" stroke-width="4" stroke-opacity="1" stroke-miterlimit="4"/><path stroke-linecap="round" transform="matrix(0.741429, 0, 0, 0.741429, 481.03554, 18.734316)" fill="none" stroke-linejoin="miter" d="M 2.00153 2.002127 L 510.542616 2.002127 " stroke="#d9ae63" stroke-width="4" stroke-opacity="1" stroke-miterlimit="4"/><path stroke-linecap="round" transform="matrix(0.741429, 0.000000000000000019, -0.000000000000000019, 0.741429, 459.140573, 53.440384)" fill="none" stroke-linejoin="miter" d="M 2.002117 1.998157 L 540.0734 1.998157 " stroke="#d9ae63" stroke-width="4" stroke-opacity="1" stroke-miterlimit="4"/></svg>