<svg xmlns="http://www.w3.org/2000/svg" xmlns:xlink="http://www.w3.org/1999/xlink" width="1200" zoomAndPan="magnify" viewBox="0 0 900 83.04" height="100" preserveAspectRatio="xMidYMid meet" version="1.0"><defs><clipPath id="f82a25daa7"><path d="M 403 5 L 497 5 L 497 69 L 403 69 Z M 403 5 " clip-rule="nonzero"/></clipPath><clipPath id="791d0f28df"><path d="M 388.25 37.070312 L 450.113281 -24.792969 L 511.976562 37.070312 L 450.113281 98.933594 Z M 388.25 37.070312 " clip-rule="nonzero"/></clipPath><clipPath id="f2d4f49050"><path d="M 388.25 37.070312 L 450.113281 -24.792969 L 511.976562 37.070312 L 450.113281 98.933594 Z M 388.25 37.070312 " clip-rule="nonzero"/></clipPath></defs><path stroke-linecap="round" transform="matrix(0.741429, 0, 0, 0.741429, 12.560462, 36.087353)" fill="none" stroke-linejoin="miter" d="M 1.999527 2.000138 L 527.694997 2.000138 " stroke="#d9ae63" stroke-width="4" stroke-opacity="1" stroke-miterlimit="4"/><path stroke-linecap="round" transform="matrix(0.741429, 0, 0, 0.741429, 36.895103, 18.566405)" fill="none" stroke-linejoin="miter" d="M 2.001276 2.002049 L 500.827164 2.002049 " stroke="#d9ae63" stroke-width="4" stroke-opacity="1" stroke-miterlimit="4"/><path stroke-linecap="round" transform="matrix(0.741429, 0.000000000000000021, -0.000000000000000021, 0.741429, 36.895103, 53.272465)" fill="none" stroke-linejoin="miter" d="M 2.001276 1.99809 L 503.16113 1.99809 " stroke="#d9ae63" stroke-width="4" stroke-opacity="1" stroke-miterlimit="4"/><path stroke-linecap="round" transform="matrix(0.741429, -0.000000000000000092, 0.000000000000000092, 0.741429, 494.168434, 37.570211)" fill="none" stroke-linejoin="miter" d="M 2.00142 2.002185 L 528.429218 2.002185 " stroke="#d9ae63" stroke-width="4" stroke-opacity="1" stroke-miterlimit="4"/><path stroke-linecap="round" transform="matrix(0.741429, 0.000000000000000137, -0.000000000000000137, 0.741429, 490.469002, 20.049262)" fill="none" stroke-linejoin="miter" d="M 2.001708 1.998828 L 497.086928 1.998828 " stroke="#d9ae63" stroke-width="4" stroke-opacity="1" stroke-miterlimit="4"/><path stroke-linecap="round" transform="matrix(0.741429, 0, 0, 0.741429, 486.820723, 54.755322)" fill="none" stroke-linejoin="miter" d="M 2.001494 2.000137 L 502.007536 2.000137 " stroke="#d9ae63" stroke-width="4" stroke-opacity="1" stroke-miterlimit="4"/><g clip-path="url(#f82a25daa7)"><g clip-path="url(#791d0f28df)"><g clip-path="url(#f2d4f49050)"><path fill="#d9ae63" d="M 449.730469 9.15625 C 449.128906 8.835938 448.519531 8.535156 447.898438 8.25 C 447.277344 7.96875 446.652344 7.707031 446.015625 7.464844 C 445.378906 7.222656 444.734375 7.003906 444.082031 6.800781 C 443.429688 6.601562 442.773438 6.421875 442.113281 6.265625 C 441.449219 6.105469 440.78125 5.96875 440.109375 5.855469 C 439.441406 5.738281 438.765625 5.644531 438.089844 5.574219 C 437.410156 5.503906 436.730469 5.453125 436.050781 5.425781 C 435.371094 5.398438 434.691406 5.390625 434.007812 5.410156 C 433.328125 5.425781 432.648438 5.464844 431.96875 5.523438 C 431.292969 5.582031 430.617188 5.664062 429.941406 5.769531 C 429.269531 5.871094 428.601562 5.996094 427.933594 6.144531 C 427.269531 6.289062 426.609375 6.457031 425.957031 6.648438 C 425.300781 6.835938 424.652344 7.046875 424.011719 7.277344 C 423.371094 7.507812 422.738281 7.761719 422.117188 8.03125 C 421.492188 8.304688 420.875 8.59375 420.269531 8.90625 C 419.664062 9.21875 419.070312 9.546875 418.484375 9.898438 C 417.898438 10.25 417.328125 10.617188 416.765625 11.003906 C 416.207031 11.390625 415.660156 11.792969 415.125 12.214844 C 414.589844 12.636719 414.070312 13.078125 413.5625 13.53125 C 413.054688 13.988281 412.566406 14.460938 412.089844 14.945312 C 411.613281 15.433594 411.152344 15.9375 410.710938 16.453125 C 410.265625 16.96875 409.839844 17.5 409.429688 18.046875 C 409.023438 18.589844 408.628906 19.148438 408.257812 19.714844 C 407.882812 20.285156 407.527344 20.867188 407.191406 21.460938 C 406.855469 22.050781 406.539062 22.65625 406.242188 23.265625 C 405.945312 23.878906 405.667969 24.503906 405.410156 25.132812 C 405.15625 25.765625 404.917969 26.402344 404.703125 27.046875 C 404.488281 27.695312 404.292969 28.347656 404.117188 29.003906 C 403.945312 29.664062 403.792969 30.328125 403.660156 30.996094 C 403.53125 31.664062 403.421875 32.335938 403.332031 33.011719 C 403.246094 33.6875 403.179688 34.363281 403.136719 35.042969 C 403.089844 35.722656 403.070312 36.402344 403.070312 37.085938 C 403.070312 37.765625 403.089844 38.445312 403.132812 39.125 C 403.179688 39.804688 403.242188 40.484375 403.332031 41.160156 C 403.417969 41.835938 403.527344 42.507812 403.660156 43.175781 C 403.789062 43.84375 403.941406 44.507812 404.113281 45.164062 C 404.289062 45.824219 404.484375 46.476562 404.699219 47.121094 C 404.914062 47.769531 405.152344 48.40625 405.40625 49.039062 C 405.664062 49.667969 405.941406 50.289062 406.238281 50.902344 C 406.535156 51.515625 406.851562 52.121094 407.1875 52.710938 C 407.523438 53.304688 407.875 53.886719 408.25 54.457031 C 408.625 55.027344 409.015625 55.582031 409.421875 56.128906 C 409.832031 56.671875 410.257812 57.203125 410.703125 57.71875 C 411.144531 58.238281 411.605469 58.738281 412.082031 59.226562 C 412.554688 59.714844 413.046875 60.183594 413.554688 60.640625 C 414.058594 61.097656 414.578125 61.535156 415.113281 61.957031 C 415.648438 62.378906 416.195312 62.785156 416.757812 63.171875 C 417.316406 63.558594 417.890625 63.925781 418.472656 64.277344 C 419.058594 64.628906 419.652344 64.957031 420.257812 65.269531 C 420.863281 65.582031 421.480469 65.875 422.105469 66.144531 C 422.730469 66.417969 423.359375 66.667969 424 66.902344 C 424.640625 67.132812 425.289062 67.34375 425.945312 67.53125 C 426.597656 67.722656 427.257812 67.890625 427.921875 68.035156 C 428.589844 68.183594 429.257812 68.308594 429.929688 68.414062 C 430.601562 68.515625 431.277344 68.597656 431.957031 68.660156 C 432.636719 68.71875 433.316406 68.757812 433.996094 68.773438 C 434.675781 68.789062 435.359375 68.785156 436.039062 68.757812 C 436.71875 68.730469 437.398438 68.679688 438.074219 68.609375 C 438.753906 68.539062 439.425781 68.445312 440.097656 68.328125 C 440.769531 68.214844 441.4375 68.078125 442.101562 67.921875 C 442.761719 67.761719 443.417969 67.585938 444.070312 67.382812 C 444.722656 67.183594 445.367188 66.964844 446.003906 66.722656 C 446.640625 66.480469 447.265625 66.21875 447.886719 65.9375 C 448.507812 65.652344 449.117188 65.351562 449.71875 65.03125 C 450.320312 65.355469 450.929688 65.65625 451.550781 65.941406 C 452.167969 66.222656 452.796875 66.488281 453.433594 66.730469 C 454.074219 66.972656 454.71875 67.195312 455.367188 67.394531 C 456.019531 67.597656 456.675781 67.777344 457.339844 67.933594 C 458.003906 68.09375 458.671875 68.230469 459.34375 68.347656 C 460.015625 68.464844 460.691406 68.558594 461.367188 68.628906 C 462.046875 68.703125 462.726562 68.75 463.40625 68.78125 C 464.089844 68.808594 464.769531 68.816406 465.453125 68.800781 C 466.132812 68.785156 466.8125 68.746094 467.492188 68.6875 C 468.171875 68.628906 468.847656 68.546875 469.523438 68.441406 C 470.199219 68.339844 470.867188 68.214844 471.535156 68.070312 C 472.199219 67.921875 472.859375 67.753906 473.515625 67.566406 C 474.171875 67.375 474.820312 67.167969 475.460938 66.9375 C 476.101562 66.703125 476.734375 66.453125 477.359375 66.183594 C 477.988281 65.910156 478.601562 65.617188 479.210938 65.308594 C 479.816406 64.996094 480.410156 64.664062 480.996094 64.316406 C 481.582031 63.964844 482.15625 63.597656 482.71875 63.210938 C 483.277344 62.824219 483.828125 62.417969 484.363281 61.996094 C 484.898438 61.574219 485.417969 61.136719 485.925781 60.679688 C 486.433594 60.222656 486.925781 59.75 487.402344 59.265625 C 487.878906 58.777344 488.339844 58.273438 488.785156 57.757812 C 489.226562 57.238281 489.65625 56.707031 490.066406 56.164062 C 490.476562 55.617188 490.867188 55.0625 491.242188 54.492188 C 491.617188 53.921875 491.96875 53.339844 492.308594 52.746094 C 492.644531 52.152344 492.960938 51.550781 493.257812 50.9375 C 493.554688 50.324219 493.832031 49.699219 494.089844 49.070312 C 494.347656 48.4375 494.585938 47.796875 494.800781 47.152344 C 495.015625 46.503906 495.210938 45.851562 495.386719 45.191406 C 495.5625 44.53125 495.714844 43.867188 495.84375 43.199219 C 495.976562 42.53125 496.085938 41.859375 496.171875 41.183594 C 496.261719 40.503906 496.328125 39.828125 496.371094 39.148438 C 496.414062 38.464844 496.4375 37.785156 496.4375 37.101562 C 496.4375 36.421875 496.414062 35.738281 496.371094 35.058594 C 496.328125 34.378906 496.261719 33.699219 496.175781 33.023438 C 496.085938 32.347656 495.976562 31.675781 495.847656 31.007812 C 495.714844 30.335938 495.5625 29.671875 495.390625 29.011719 C 495.214844 28.355469 495.019531 27.699219 494.804688 27.054688 C 494.589844 26.40625 494.351562 25.769531 494.09375 25.136719 C 493.839844 24.503906 493.5625 23.882812 493.265625 23.269531 C 492.964844 22.65625 492.648438 22.050781 492.3125 21.457031 C 491.976562 20.867188 491.621094 20.285156 491.25 19.714844 C 490.875 19.144531 490.484375 18.585938 490.074219 18.039062 C 489.664062 17.496094 489.234375 16.964844 488.792969 16.445312 C 488.347656 15.929688 487.886719 15.425781 487.410156 14.9375 C 486.933594 14.449219 486.441406 13.980469 485.9375 13.523438 C 485.429688 13.066406 484.90625 12.628906 484.371094 12.203125 C 483.835938 11.78125 483.289062 11.378906 482.726562 10.992188 C 482.167969 10.605469 481.59375 10.234375 481.007812 9.886719 C 480.421875 9.535156 479.828125 9.203125 479.21875 8.890625 C 478.613281 8.582031 477.996094 8.289062 477.371094 8.015625 C 476.746094 7.746094 476.113281 7.492188 475.472656 7.261719 C 474.832031 7.03125 474.183594 6.820312 473.527344 6.632812 C 472.871094 6.441406 472.210938 6.273438 471.546875 6.128906 C 470.878906 5.980469 470.210938 5.855469 469.535156 5.753906 C 468.863281 5.648438 468.183594 5.566406 467.503906 5.507812 C 466.828125 5.449219 466.144531 5.410156 465.464844 5.394531 C 464.78125 5.378906 464.101562 5.386719 463.417969 5.414062 C 462.738281 5.441406 462.058594 5.492188 461.378906 5.5625 C 460.703125 5.636719 460.027344 5.730469 459.355469 5.84375 C 458.683594 5.960938 458.015625 6.097656 457.351562 6.253906 C 456.6875 6.414062 456.03125 6.59375 455.378906 6.796875 C 454.730469 6.996094 454.085938 7.21875 453.445312 7.460938 C 452.808594 7.703125 452.179688 7.964844 451.5625 8.25 C 450.941406 8.53125 450.328125 8.835938 449.730469 9.15625 Z M 460.804688 18.996094 C 461.472656 18.855469 462.148438 18.75 462.832031 18.683594 C 463.511719 18.617188 464.195312 18.589844 464.878906 18.597656 C 465.566406 18.609375 466.246094 18.65625 466.925781 18.742188 C 467.605469 18.824219 468.28125 18.949219 468.945312 19.109375 C 469.613281 19.269531 470.265625 19.464844 470.910156 19.699219 C 471.554688 19.933594 472.183594 20.199219 472.796875 20.503906 C 473.414062 20.804688 474.007812 21.144531 474.585938 21.511719 C 475.160156 21.882812 475.714844 22.28125 476.25 22.714844 C 476.78125 23.144531 477.289062 23.605469 477.769531 24.089844 C 478.25 24.578125 478.703125 25.089844 479.125 25.628906 C 479.550781 26.167969 479.945312 26.726562 480.304688 27.308594 C 480.667969 27.890625 480.996094 28.492188 481.289062 29.109375 C 481.585938 29.726562 481.84375 30.359375 482.070312 31.007812 C 482.292969 31.652344 482.484375 32.3125 482.632812 32.980469 C 482.785156 33.648438 482.898438 34.320312 482.976562 35.003906 C 483.050781 35.683594 483.089844 36.367188 483.089844 37.050781 C 483.089844 37.734375 483.054688 38.417969 482.976562 39.097656 C 482.902344 39.78125 482.789062 40.453125 482.640625 41.121094 C 482.488281 41.792969 482.300781 42.449219 482.078125 43.097656 C 481.855469 43.742188 481.59375 44.375 481.300781 44.996094 C 481.007812 45.613281 480.679688 46.214844 480.316406 46.796875 C 479.957031 47.378906 479.5625 47.9375 479.140625 48.476562 C 478.71875 49.015625 478.265625 49.527344 477.785156 50.015625 C 477.304688 50.503906 476.796875 50.964844 476.265625 51.398438 C 475.734375 51.828125 475.179688 52.230469 474.605469 52.597656 C 474.027344 52.96875 473.433594 53.304688 472.820312 53.609375 C 472.203125 53.914062 471.574219 54.183594 470.933594 54.417969 C 470.289062 54.652344 469.632812 54.847656 468.96875 55.007812 C 468.300781 55.171875 467.628906 55.292969 466.949219 55.378906 C 466.269531 55.464844 465.585938 55.515625 464.902344 55.523438 C 464.21875 55.535156 463.535156 55.507812 462.851562 55.441406 C 462.171875 55.375 461.496094 55.273438 460.824219 55.132812 C 461.742188 53.816406 462.558594 52.433594 463.265625 50.992188 C 463.976562 49.550781 464.570312 48.066406 465.050781 46.53125 C 465.53125 45 465.894531 43.441406 466.136719 41.851562 C 466.378906 40.265625 466.5 38.667969 466.5 37.0625 C 466.5 35.453125 466.375 33.859375 466.132812 32.269531 C 465.886719 30.683594 465.523438 29.121094 465.039062 27.589844 C 464.554688 26.058594 463.960938 24.574219 463.25 23.132812 C 462.539062 21.691406 461.722656 20.3125 460.804688 18.996094 Z M 415.144531 56.695312 C 414.527344 56.078125 413.941406 55.433594 413.382812 54.761719 C 412.828125 54.089844 412.300781 53.394531 411.8125 52.671875 C 411.320312 51.949219 410.867188 51.207031 410.445312 50.441406 C 410.023438 49.675781 409.640625 48.894531 409.292969 48.09375 C 408.945312 47.292969 408.636719 46.476562 408.367188 45.648438 C 408.097656 44.816406 407.867188 43.976562 407.679688 43.125 C 407.488281 42.273438 407.335938 41.414062 407.226562 40.546875 C 407.117188 39.683594 407.050781 38.8125 407.023438 37.941406 C 406.996094 37.066406 407.007812 36.195312 407.0625 35.324219 C 407.117188 34.453125 407.214844 33.585938 407.351562 32.726562 C 407.488281 31.863281 407.664062 31.011719 407.882812 30.164062 C 408.097656 29.320312 408.355469 28.484375 408.648438 27.664062 C 408.945312 26.84375 409.28125 26.039062 409.652344 25.25 C 410.023438 24.457031 410.429688 23.6875 410.875 22.9375 C 411.320312 22.1875 411.796875 21.457031 412.3125 20.75 C 412.824219 20.046875 413.371094 19.367188 413.949219 18.710938 C 414.523438 18.054688 415.132812 17.429688 415.769531 16.832031 C 416.40625 16.234375 417.066406 15.671875 417.757812 15.136719 C 418.449219 14.601562 419.160156 14.101562 419.898438 13.632812 C 420.636719 13.164062 421.394531 12.734375 422.171875 12.335938 C 422.949219 11.941406 423.742188 11.582031 424.554688 11.261719 C 425.367188 10.941406 426.191406 10.660156 427.03125 10.417969 C 427.867188 10.171875 428.714844 9.96875 429.574219 9.808594 C 430.429688 9.644531 431.292969 9.523438 432.164062 9.441406 C 433.03125 9.359375 433.902344 9.316406 434.777344 9.320312 C 435.648438 9.320312 436.519531 9.359375 437.386719 9.445312 C 438.257812 9.527344 439.121094 9.648438 439.976562 9.8125 C 440.835938 9.976562 441.683594 10.183594 442.519531 10.425781 C 443.359375 10.671875 444.183594 10.953125 444.992188 11.277344 C 445.804688 11.597656 446.597656 11.957031 447.375 12.355469 C 448.152344 12.75 448.910156 13.183594 449.648438 13.652344 C 450.382812 14.121094 451.097656 14.621094 451.785156 15.15625 C 452.5 15.710938 453.183594 16.292969 453.839844 16.910156 C 454.496094 17.53125 455.117188 18.179688 455.710938 18.855469 C 456.304688 19.535156 456.859375 20.242188 457.382812 20.976562 C 457.90625 21.710938 458.394531 22.464844 458.84375 23.246094 C 459.292969 24.027344 459.703125 24.828125 460.074219 25.652344 C 460.445312 26.472656 460.777344 27.308594 461.066406 28.164062 C 461.355469 29.015625 461.601562 29.882812 461.808594 30.757812 C 462.011719 31.636719 462.171875 32.523438 462.292969 33.414062 C 462.410156 34.308594 462.484375 35.207031 462.515625 36.105469 C 462.546875 37.007812 462.53125 37.90625 462.472656 38.804688 C 462.417969 39.707031 462.316406 40.601562 462.171875 41.488281 C 462.027344 42.378906 461.839844 43.257812 461.609375 44.128906 C 461.378906 45 461.105469 45.859375 460.789062 46.703125 C 460.476562 47.546875 460.121094 48.375 459.726562 49.183594 C 459.328125 49.992188 458.894531 50.78125 458.421875 51.550781 C 457.949219 52.316406 457.441406 53.058594 456.898438 53.777344 C 455.285156 53.015625 453.808594 52.042969 452.472656 50.863281 C 453.015625 50.164062 453.515625 49.4375 453.976562 48.679688 C 454.433594 47.921875 454.84375 47.140625 455.210938 46.332031 C 455.574219 45.527344 455.894531 44.699219 456.160156 43.855469 C 456.429688 43.011719 456.644531 42.15625 456.8125 41.285156 C 456.980469 40.414062 457.09375 39.539062 457.15625 38.65625 C 457.21875 37.773438 457.230469 36.886719 457.1875 36.003906 C 457.148438 35.121094 457.054688 34.238281 456.910156 33.367188 C 456.761719 32.492188 456.566406 31.632812 456.320312 30.78125 C 456.070312 29.929688 455.773438 29.097656 455.429688 28.28125 C 455.082031 27.46875 454.6875 26.675781 454.25 25.90625 C 453.808594 25.136719 453.324219 24.398438 452.796875 23.6875 C 452.269531 22.976562 451.703125 22.296875 451.097656 21.652344 C 450.488281 21.007812 449.84375 20.402344 449.167969 19.832031 C 448.488281 19.265625 447.777344 18.738281 447.035156 18.253906 C 446.292969 17.769531 445.527344 17.332031 444.734375 16.9375 C 443.9375 16.546875 443.125 16.199219 442.292969 15.902344 C 441.457031 15.605469 440.609375 15.359375 439.746094 15.160156 C 438.882812 14.964844 438.007812 14.820312 437.128906 14.726562 C 436.246094 14.632812 435.363281 14.589844 434.480469 14.601562 C 433.59375 14.613281 432.710938 14.675781 431.832031 14.792969 C 430.957031 14.90625 430.085938 15.074219 429.230469 15.292969 C 428.371094 15.507812 427.527344 15.777344 426.699219 16.09375 C 425.875 16.414062 425.070312 16.777344 424.285156 17.191406 C 423.503906 17.601562 422.746094 18.0625 422.015625 18.5625 C 421.289062 19.066406 420.589844 19.609375 419.925781 20.195312 C 419.261719 20.777344 418.632812 21.402344 418.039062 22.058594 C 417.449219 22.71875 416.898438 23.410156 416.386719 24.136719 C 415.878906 24.859375 415.414062 25.609375 414.992188 26.390625 C 414.570312 27.167969 414.199219 27.972656 413.871094 28.792969 C 413.546875 29.617188 413.269531 30.457031 413.042969 31.3125 C 412.816406 32.171875 412.640625 33.035156 412.519531 33.914062 C 412.394531 34.789062 412.324219 35.671875 412.300781 36.558594 C 412.28125 37.441406 412.316406 38.324219 412.398438 39.207031 C 412.484375 40.089844 412.621094 40.960938 412.808594 41.828125 C 412.996094 42.691406 413.234375 43.542969 413.523438 44.382812 C 413.8125 45.21875 414.148438 46.035156 414.535156 46.832031 C 414.921875 47.632812 415.351562 48.402344 415.828125 49.148438 C 416.304688 49.894531 416.824219 50.609375 417.386719 51.296875 C 417.945312 51.980469 418.546875 52.628906 419.183594 53.246094 C 419.824219 53.859375 420.496094 54.433594 421.203125 54.96875 C 421.90625 55.5 422.644531 55.992188 423.40625 56.441406 C 424.171875 56.886719 424.960938 57.289062 425.769531 57.644531 C 426.582031 57.996094 427.414062 58.300781 428.261719 58.558594 C 429.109375 58.816406 429.96875 59.019531 430.839844 59.175781 C 431.710938 59.328125 432.589844 59.429688 433.472656 59.480469 C 434.359375 59.53125 435.242188 59.53125 436.125 59.476562 C 437.011719 59.421875 437.886719 59.316406 438.757812 59.160156 C 439.632812 59 440.488281 58.792969 441.335938 58.53125 C 442.640625 59.964844 444.074219 61.25 445.636719 62.390625 C 445.695312 62.449219 445.75 62.507812 445.808594 62.5625 C 444.539062 63.113281 443.234375 63.5625 441.894531 63.917969 C 440.558594 64.273438 439.203125 64.523438 437.824219 64.675781 C 436.449219 64.828125 435.070312 64.875 433.6875 64.820312 C 432.304688 64.765625 430.933594 64.605469 429.574219 64.347656 C 428.214844 64.085938 426.882812 63.726562 425.578125 63.269531 C 424.269531 62.808594 423.007812 62.253906 421.785156 61.605469 C 420.5625 60.957031 419.394531 60.222656 418.28125 59.398438 C 417.167969 58.578125 416.121094 57.675781 415.144531 56.695312 Z M 449.695312 47.839844 C 449.128906 47.0625 448.628906 46.242188 448.195312 45.386719 C 447.761719 44.527344 447.394531 43.640625 447.101562 42.726562 C 446.804688 41.8125 446.585938 40.878906 446.4375 39.925781 C 446.289062 38.976562 446.214844 38.019531 446.21875 37.058594 C 446.222656 36.097656 446.300781 35.140625 446.453125 34.191406 C 446.605469 33.242188 446.835938 32.3125 447.136719 31.398438 C 447.433594 30.484375 447.804688 29.597656 448.246094 28.742188 C 448.6875 27.890625 449.191406 27.074219 449.757812 26.296875 C 450.324219 27.078125 450.820312 27.894531 451.257812 28.753906 C 451.691406 29.609375 452.058594 30.496094 452.351562 31.414062 C 452.648438 32.328125 452.867188 33.261719 453.015625 34.210938 C 453.164062 35.164062 453.234375 36.117188 453.234375 37.082031 C 453.230469 38.042969 453.152344 38.996094 453 39.945312 C 452.84375 40.898438 452.617188 41.828125 452.316406 42.742188 C 452.015625 43.65625 451.648438 44.539062 451.207031 45.394531 C 450.765625 46.25 450.261719 47.066406 449.695312 47.839844 Z M 438.636719 55.144531 C 437.96875 55.285156 437.292969 55.394531 436.609375 55.460938 C 435.925781 55.53125 435.242188 55.5625 434.554688 55.554688 C 433.871094 55.546875 433.1875 55.503906 432.507812 55.421875 C 431.824219 55.335938 431.152344 55.214844 430.484375 55.058594 C 429.816406 54.898438 429.160156 54.703125 428.515625 54.472656 C 427.867188 54.242188 427.238281 53.976562 426.621094 53.675781 C 426.003906 53.371094 425.40625 53.039062 424.828125 52.667969 C 424.25 52.300781 423.695312 51.902344 423.160156 51.472656 C 422.625 51.042969 422.117188 50.582031 421.632812 50.097656 C 421.148438 49.609375 420.695312 49.097656 420.269531 48.5625 C 419.84375 48.023438 419.445312 47.464844 419.082031 46.882812 C 418.71875 46.300781 418.386719 45.703125 418.089844 45.082031 C 417.792969 44.464844 417.53125 43.832031 417.304688 43.1875 C 417.078125 42.539062 416.886719 41.878906 416.734375 41.210938 C 416.578125 40.542969 416.464844 39.867188 416.386719 39.1875 C 416.308594 38.503906 416.265625 37.820312 416.265625 37.136719 C 416.261719 36.449219 416.296875 35.765625 416.371094 35.085938 C 416.445312 34.402344 416.554688 33.726562 416.707031 33.058594 C 416.855469 32.386719 417.039062 31.726562 417.261719 31.078125 C 417.484375 30.429688 417.742188 29.796875 418.035156 29.175781 C 418.328125 28.554688 418.65625 27.953125 419.015625 27.371094 C 419.375 26.785156 419.765625 26.222656 420.1875 25.683594 C 420.613281 25.144531 421.0625 24.628906 421.542969 24.136719 C 422.023438 23.648438 422.527344 23.1875 423.058594 22.753906 C 423.589844 22.316406 424.144531 21.914062 424.722656 21.542969 C 425.296875 21.171875 425.894531 20.832031 426.507812 20.527344 C 427.121094 20.21875 427.75 19.949219 428.394531 19.714844 C 429.039062 19.476562 429.691406 19.277344 430.359375 19.117188 C 431.027344 18.953125 431.699219 18.828125 432.378906 18.738281 C 433.058594 18.652344 433.742188 18.601562 434.429688 18.589844 C 435.113281 18.578125 435.796875 18.605469 436.480469 18.667969 C 437.164062 18.734375 437.839844 18.835938 438.511719 18.976562 C 437.617188 20.304688 436.824219 21.691406 436.132812 23.140625 C 435.445312 24.585938 434.867188 26.078125 434.398438 27.613281 C 433.933594 29.144531 433.582031 30.707031 433.351562 32.292969 C 433.117188 33.878906 433.003906 35.472656 433.007812 37.078125 C 433.015625 38.679688 433.140625 40.277344 433.382812 41.859375 C 433.628906 43.445312 433.988281 45.003906 434.464844 46.535156 C 434.941406 48.066406 435.53125 49.550781 436.230469 50.996094 C 436.929688 52.4375 437.730469 53.820312 438.636719 55.144531 Z M 484.308594 56.695312 C 483.691406 57.308594 483.046875 57.890625 482.378906 58.441406 C 481.707031 58.996094 481.011719 59.515625 480.289062 60 C 479.570312 60.488281 478.832031 60.941406 478.066406 61.359375 C 477.304688 61.777344 476.527344 62.15625 475.726562 62.5 C 474.929688 62.84375 474.117188 63.152344 473.292969 63.421875 C 472.464844 63.6875 471.628906 63.917969 470.78125 64.105469 C 469.933594 64.296875 469.078125 64.445312 468.214844 64.554688 C 467.351562 64.664062 466.488281 64.734375 465.617188 64.761719 C 464.75 64.792969 463.882812 64.78125 463.015625 64.726562 C 462.148438 64.675781 461.285156 64.582031 460.425781 64.449219 C 459.566406 64.3125 458.71875 64.140625 457.875 63.925781 C 457.03125 63.714844 456.203125 63.460938 455.382812 63.167969 C 454.5625 62.878906 453.761719 62.550781 452.972656 62.183594 C 452.183594 61.816406 451.417969 61.414062 450.667969 60.976562 C 449.914062 60.535156 449.1875 60.0625 448.480469 59.558594 C 447.777344 59.050781 447.09375 58.511719 446.441406 57.941406 C 445.785156 57.371094 445.15625 56.769531 444.558594 56.140625 C 443.960938 55.511719 443.390625 54.855469 442.851562 54.171875 C 442.316406 53.488281 441.8125 52.785156 441.339844 52.054688 C 440.867188 51.324219 440.433594 50.574219 440.03125 49.800781 C 439.628906 49.03125 439.265625 48.242188 438.9375 47.4375 C 438.613281 46.632812 438.324219 45.816406 438.070312 44.984375 C 437.820312 44.152344 437.609375 43.308594 437.4375 42.457031 C 437.265625 41.605469 437.136719 40.746094 437.046875 39.882812 C 436.953125 39.019531 436.902344 38.152344 436.894531 37.28125 C 436.882812 36.414062 436.914062 35.546875 436.984375 34.679688 C 437.058594 33.8125 437.167969 32.953125 437.320312 32.097656 C 437.472656 31.242188 437.664062 30.394531 437.894531 29.558594 C 438.128906 28.71875 438.398438 27.894531 438.707031 27.082031 C 439.015625 26.269531 439.359375 25.476562 439.746094 24.695312 C 440.128906 23.914062 440.546875 23.15625 441 22.414062 C 441.457031 21.675781 441.945312 20.957031 442.464844 20.261719 C 444.117188 21.042969 445.625 22.042969 446.992188 23.253906 C 446.453125 23.941406 445.957031 24.660156 445.503906 25.410156 C 445.046875 26.15625 444.636719 26.929688 444.273438 27.722656 C 443.910156 28.519531 443.59375 29.332031 443.324219 30.167969 C 443.054688 31 442.835938 31.84375 442.664062 32.703125 C 442.496094 33.5625 442.375 34.425781 442.304688 35.296875 C 442.238281 36.171875 442.21875 37.042969 442.25 37.917969 C 442.285156 38.792969 442.367188 39.664062 442.503906 40.527344 C 442.636719 41.390625 442.820312 42.246094 443.058594 43.089844 C 443.292969 43.929688 443.574219 44.757812 443.90625 45.566406 C 444.234375 46.378906 444.613281 47.164062 445.035156 47.929688 C 445.460938 48.695312 445.925781 49.4375 446.4375 50.148438 C 446.945312 50.859375 447.496094 51.539062 448.082031 52.183594 C 448.671875 52.832031 449.296875 53.441406 449.957031 54.015625 C 450.617188 54.589844 451.308594 55.125 452.03125 55.617188 C 452.753906 56.109375 453.503906 56.558594 454.277344 56.964844 C 455.054688 57.371094 455.851562 57.730469 456.667969 58.042969 L 456.734375 58.074219 C 457.570312 58.386719 458.417969 58.652344 459.28125 58.863281 C 460.144531 59.078125 461.019531 59.238281 461.902344 59.347656 C 462.785156 59.457031 463.671875 59.515625 464.5625 59.519531 C 465.449219 59.523438 466.335938 59.472656 467.222656 59.375 C 468.105469 59.273438 468.980469 59.117188 469.847656 58.914062 C 470.710938 58.707031 471.5625 58.453125 472.398438 58.144531 C 473.234375 57.839844 474.046875 57.484375 474.84375 57.082031 C 475.636719 56.675781 476.402344 56.230469 477.140625 55.734375 C 477.882812 55.238281 478.589844 54.703125 479.265625 54.125 C 479.941406 53.546875 480.582031 52.929688 481.183594 52.273438 C 481.785156 51.621094 482.347656 50.933594 482.871094 50.210938 C 483.390625 49.488281 483.867188 48.738281 484.300781 47.960938 C 484.730469 47.183594 485.113281 46.382812 485.453125 45.558594 C 485.789062 44.734375 486.074219 43.894531 486.3125 43.035156 C 486.546875 42.179688 486.734375 41.308594 486.867188 40.429688 C 487 39.550781 487.082031 38.664062 487.109375 37.777344 C 487.136719 36.886719 487.113281 36 487.035156 35.113281 C 486.957031 34.226562 486.828125 33.347656 486.648438 32.476562 C 486.464844 31.605469 486.230469 30.746094 485.949219 29.902344 C 485.664062 29.058594 485.332031 28.238281 484.949219 27.433594 C 484.566406 26.628906 484.140625 25.851562 483.664062 25.097656 C 483.191406 24.34375 482.675781 23.621094 482.113281 22.929688 C 481.554688 22.238281 480.957031 21.582031 480.316406 20.964844 C 479.679688 20.34375 479.007812 19.761719 478.300781 19.222656 C 477.59375 18.683594 476.855469 18.183594 476.089844 17.734375 C 475.324219 17.28125 474.53125 16.875 473.71875 16.515625 C 472.902344 16.15625 472.070312 15.847656 471.21875 15.585938 C 470.371094 15.328125 469.503906 15.121094 468.628906 14.960938 C 467.753906 14.804688 466.871094 14.699219 465.984375 14.648438 C 465.09375 14.597656 464.207031 14.597656 463.320312 14.648438 C 462.429688 14.703125 461.546875 14.808594 460.671875 14.96875 C 459.796875 15.125 458.933594 15.335938 458.082031 15.597656 C 456.746094 14.121094 455.269531 12.800781 453.664062 11.628906 C 454.394531 11.308594 455.140625 11.023438 455.902344 10.769531 C 456.660156 10.515625 457.425781 10.296875 458.203125 10.109375 C 458.980469 9.921875 459.765625 9.769531 460.558594 9.648438 C 461.347656 9.53125 462.140625 9.445312 462.941406 9.394531 C 463.738281 9.34375 464.535156 9.328125 465.335938 9.347656 C 466.136719 9.367188 466.933594 9.417969 467.726562 9.507812 C 468.523438 9.59375 469.3125 9.714844 470.097656 9.871094 C 470.882812 10.027344 471.65625 10.214844 472.425781 10.441406 C 473.191406 10.664062 473.949219 10.917969 474.695312 11.207031 C 475.441406 11.496094 476.175781 11.816406 476.890625 12.167969 C 477.609375 12.519531 478.3125 12.898438 478.996094 13.3125 C 479.683594 13.726562 480.347656 14.167969 480.996094 14.636719 C 481.640625 15.105469 482.269531 15.601562 482.871094 16.128906 C 483.476562 16.652344 484.054688 17.199219 484.613281 17.773438 C 485.167969 18.347656 485.699219 18.945312 486.203125 19.566406 C 486.710938 20.1875 487.1875 20.828125 487.636719 21.488281 C 488.085938 22.148438 488.507812 22.828125 488.898438 23.527344 C 489.289062 24.226562 489.648438 24.9375 489.976562 25.667969 C 490.304688 26.394531 490.601562 27.136719 490.867188 27.890625 C 491.132812 28.648438 491.363281 29.410156 491.5625 30.1875 C 491.761719 30.960938 491.925781 31.742188 492.058594 32.53125 C 492.1875 33.320312 492.285156 34.113281 492.347656 34.910156 C 492.410156 35.707031 492.4375 36.503906 492.433594 37.304688 C 492.425781 38.105469 492.386719 38.902344 492.308594 39.699219 C 492.234375 40.496094 492.125 41.285156 491.980469 42.074219 C 491.835938 42.859375 491.660156 43.636719 491.449219 44.410156 C 491.234375 45.179688 490.992188 45.941406 490.714844 46.691406 C 490.4375 47.441406 490.128906 48.179688 489.789062 48.902344 C 489.449219 49.625 489.074219 50.332031 488.675781 51.023438 C 488.273438 51.714844 487.839844 52.386719 487.382812 53.042969 C 486.921875 53.695312 486.433594 54.328125 485.917969 54.941406 C 485.402344 55.554688 484.863281 56.140625 484.296875 56.707031 Z M 484.308594 56.695312 " fill-opacity="1" fill-rule="nonzero"/></g></g></g></svg>